<svg width="162" height="36" viewBox="0 0 162 36" fill="none" xmlns="http://www.w3.org/2000/svg">
<path fill-rule="evenodd" clip-rule="evenodd" d="M76.6419 0.965681C76.1386 1.17782 75.6887 1.51696 75.3293 1.9552L75.3283 1.95682C74.9646 2.41184 74.694 2.94576 74.5342 3.5232C74.359 4.12707 74.2732 4.80872 74.2732 5.55032V14.4371C74.2732 15.1787 74.359 15.8604 74.5347 16.4642C74.6943 17.0418 74.9649 17.5757 75.3288 18.0306C75.6884 18.4682 76.1383 18.8068 76.6414 19.0185C77.1367 19.2297 77.702 19.3426 78.3531 19.3426C79.0042 19.3426 79.5794 19.2302 80.0757 19.0185C80.5802 18.8081 81.0317 18.4707 81.3933 18.0338C81.7612 17.5789 82.035 17.0432 82.1963 16.4631C82.3725 15.8582 82.4588 15.176 82.4588 14.4333V8.78841H78.0836V11.6857H79.7064V14.5268C79.7112 14.8331 79.6795 15.1388 79.6121 15.4363C79.5671 15.6441 79.4826 15.8394 79.364 16.0094C79.2648 16.1415 79.1366 16.2442 78.9913 16.3081C78.803 16.3852 78.6028 16.4218 78.4017 16.4161C78.2029 16.4219 78.005 16.3852 77.8191 16.3081C77.6725 16.2432 77.5433 16.1392 77.4434 16.0056C77.323 15.8346 77.2367 15.6381 77.1898 15.4288C77.1219 15.1345 77.0897 14.8318 77.094 14.5284V5.44877C77.0897 5.14537 77.1219 4.84266 77.1898 4.54837C77.2367 4.33903 77.323 4.14259 77.4434 3.97151C77.5432 3.83788 77.6725 3.73384 77.8191 3.66904C78.1982 3.52337 78.6117 3.52337 78.9908 3.66904C79.1363 3.73207 79.2646 3.83451 79.3635 3.96665C79.482 4.13675 79.5666 4.33196 79.6116 4.53973C79.6789 4.83706 79.7106 5.1426 79.7059 5.44877V7.6093H82.4578V5.54978C82.4578 4.80764 82.3715 4.12545 82.1953 3.5205C82.0336 2.94101 81.7602 2.40571 81.3933 1.95034C81.0317 1.51347 80.5802 1.17604 80.0757 0.965681C79.5774 0.753949 78.9992 0.641602 78.3531 0.641602C77.7069 0.641602 77.1382 0.753409 76.6419 0.965681ZM14.0808 18.5805V0.813443H16.923V19.1682H14.0808V18.5805ZM0 18.5817V0.814559H4.0814C4.76031 0.814559 5.34443 0.906921 5.8417 1.09057C6.32381 1.25975 6.75971 1.55672 7.11019 1.95478C7.44931 2.35588 7.69686 2.83828 7.83277 3.3629C7.98165 3.89817 8.05014 4.51338 8.05014 5.20691V6.01711C8.054 6.47235 8.01727 6.92693 7.94046 7.37446C7.87302 7.77331 7.74825 8.1581 7.57073 8.51468C7.43459 8.7834 7.2606 9.02726 7.0551 9.23737C6.99919 9.29427 6.94079 9.34828 6.87991 9.39941C6.97616 9.47261 7.06846 9.55178 7.15634 9.63653C7.39444 9.86703 7.5976 10.137 7.75833 10.4365C7.96084 10.8195 8.10608 11.2352 8.1886 11.668C8.27915 12.1413 8.32275 12.6239 8.31863 13.1074V14.5555C8.31863 15.2782 8.23227 15.9291 8.05758 16.5C7.8967 17.0517 7.62185 17.5559 7.25411 17.974C6.88231 18.3835 6.42745 18.6925 5.92607 18.876C5.41887 19.0689 4.83425 19.1682 4.16973 19.1682H0V18.5817ZM2.84169 3.73441V8.10138H3.6531C3.91271 8.10771 4.17209 8.08051 4.42581 8.02036C4.59134 7.98309 4.74602 7.90244 4.87643 7.7854C4.99699 7.65842 5.08405 7.49857 5.12854 7.32251C5.19653 7.08809 5.23077 6.7867 5.23077 6.40914V5.40288C5.23561 5.12073 5.21064 4.83891 5.15633 4.56297C5.12454 4.38528 5.05672 4.21755 4.95782 4.07199C4.87306 3.96013 4.76162 3.87585 4.63574 3.8284C4.44251 3.75901 4.2396 3.72702 4.03623 3.73387H2.84169V3.73441ZM2.84169 16.2513V11.0229H3.83276C4.10766 11.0156 4.38217 11.0494 4.64864 11.1233C4.82589 11.1718 4.98862 11.2693 5.1211 11.4064C5.25439 11.5633 5.34882 11.7546 5.39554 11.9621C5.46651 12.2295 5.50125 12.5709 5.50125 12.9857V14.5094C5.50645 14.8013 5.47676 15.0927 5.41291 15.3763C5.37197 15.5639 5.29276 15.7391 5.18115 15.8889C5.08058 16.0095 4.95304 16.0998 4.81092 16.1509C4.60442 16.2234 4.38813 16.2574 4.17122 16.2513H2.84169ZM30.8908 16.2515H25.7831L30.936 3.24025V0.813443H22.8858V3.73448H27.7702L22.6377 16.743V19.1682H30.8908V16.2515ZM42.2903 18.7577L39.3127 8.50978V19.1682H36.6506V0.813443H39.8184L42.5355 10.0497V0.813443H45.1747V19.1682H42.4095L42.2903 18.7577ZM51.1375 0.813443V18.5805V19.1682H53.9797V0.813443H51.1375ZM65.5584 18.7577L62.5808 8.50978V19.1682H59.9187V0.813443H63.0865L65.8041 10.0497V0.813443H68.4433V19.1682H65.6785L65.5584 18.7577Z" fill="white"/>
<path fill-rule="evenodd" clip-rule="evenodd" d="M144.497 18.6889L143.971 15.7111H140.873L140.266 19.168H137.542L138.221 15.3179C138.41 14.2477 138.598 13.1776 138.787 12.1095L138.791 12.0858C139.444 8.38028 140.093 4.69985 140.714 1.12971L140.77 0.811035H144.212L145.817 9.91549C146.307 12.7015 146.816 15.5993 147.359 18.7056L147.44 19.1674H144.581L144.497 18.6883V18.6889ZM97.3735 0.812352H99.6529V14.5317C99.6482 14.8379 99.6799 15.1434 99.7472 15.4407C99.7923 15.6485 99.8768 15.8437 99.9953 16.0138C100.094 16.1463 100.222 16.2491 100.368 16.3125C100.557 16.3888 100.757 16.4255 100.958 16.4205C101.154 16.4259 101.349 16.3892 101.532 16.3125C101.676 16.2488 101.803 16.1462 101.9 16.0144C102.018 15.8439 102.103 15.6486 102.148 15.4407C102.215 15.1433 102.246 14.8378 102.241 14.5317V0.812352H104.971V14.4329C104.979 15.1229 104.891 15.8104 104.71 16.4719C104.552 17.0523 104.281 17.5892 103.916 18.0469C103.558 18.4865 103.109 18.8268 102.606 19.0396C102.109 19.2525 101.54 19.3637 100.89 19.3637C100.24 19.3637 99.6787 19.2498 99.1849 19.0359C98.6836 18.8226 98.2364 18.4823 97.8802 18.0431C97.5178 17.5846 97.2485 17.0478 97.0901 16.4681C96.9102 15.807 96.8227 15.1201 96.8306 14.4307V0.812352H97.372H97.3735ZM115.941 19.1681H113.663V12.5148L110.12 0.813361H113.092L115.156 7.90529L117.24 0.813361H120.05L116.484 12.5088V19.1681H115.942H115.941ZM132.616 19.1681V16.8364L132.616 16.8407V16.2514H128.106V0.813361H125.264V19.1681H132.616ZM142.396 6.66427L143.513 12.8844H143.513H141.306L142.396 6.66427ZM152.863 18.5788V0.813361H156.923C157.61 0.813361 158.204 0.912745 158.71 1.10719C159.203 1.2882 159.647 1.59749 160.005 2.00813C160.352 2.42092 160.607 2.91539 160.749 3.45298C160.905 4.00338 160.979 4.62993 160.979 5.32886V6.7278C160.983 7.20536 160.939 7.68192 160.847 8.14889C160.766 8.56322 160.625 8.96099 160.43 9.32746C160.281 9.60276 160.095 9.85235 159.878 10.068C159.812 10.1321 159.744 10.1931 159.675 10.2511C159.759 10.3183 159.84 10.3904 159.917 10.4671C160.14 10.6936 160.33 10.9561 160.479 11.2455C160.669 11.6198 160.804 12.0237 160.88 12.4429C160.965 12.9035 161.006 13.3723 161.002 13.8419V16.5215C161.002 16.7235 161.002 16.912 161.008 17.0584C161.014 17.2263 161.025 17.3878 161.044 17.5412C161.059 17.68 161.085 17.8172 161.12 17.9517C161.152 18.0741 161.196 18.1923 161.252 18.3044L161.683 19.1724H158.646L158.502 18.8224C158.442 18.6806 158.39 18.5351 158.347 18.3865C158.3 18.2217 158.264 18.0535 158.239 17.8831C158.209 17.6827 158.189 17.4808 158.179 17.2782C158.166 17.0449 158.16 16.7883 158.16 16.4972V13.7965C158.16 13.3822 158.119 13.0463 158.039 12.7805C157.983 12.5693 157.877 12.3775 157.732 12.2236C157.586 12.0825 157.411 11.9819 157.221 11.9304C156.954 11.8586 156.679 11.8255 156.404 11.832H155.706V19.1681H152.864V18.581L152.863 18.5788ZM155.704 8.90903V3.7324H155.705H156.877C157.09 3.7253 157.303 3.76063 157.505 3.83665C157.643 3.89168 157.765 3.98606 157.859 4.10995C157.967 4.26649 158.042 4.44674 158.08 4.6382C158.139 4.92162 158.167 5.21179 158.162 5.50241V7.14171C158.162 7.53385 158.122 7.84497 158.046 8.08695C157.994 8.27423 157.895 8.44231 157.761 8.57306C157.616 8.69846 157.446 8.78505 157.265 8.82584C157.004 8.88708 156.737 8.91499 156.471 8.90903H155.704Z" fill="white"/>
<path d="M95.0431 25.5381L95.8873 31.1749L96.7315 25.5381H98.9836V35.4409H97.4134V30.9913L96.7364 35.4409H95.8873H95.0382L94.3612 30.9913V35.4409H92.791V25.5381H95.0431Z" fill="white"/>
<path fill-rule="evenodd" clip-rule="evenodd" d="M77.7859 34.8674C77.3974 34.4218 77.1939 33.7753 77.1939 32.9591V28.0207C77.1939 27.2046 77.3974 26.558 77.7859 26.1124C78.1745 25.6668 78.7388 25.4297 79.4624 25.4297C80.1859 25.4297 80.7527 25.6673 81.1388 26.1119C81.5249 26.5564 81.7309 27.204 81.7309 28.0202V32.9586C81.7309 33.7747 81.5274 34.4213 81.1388 34.8669C80.7502 35.3125 80.1864 35.5491 79.4624 35.5491C78.7383 35.5491 78.172 35.3114 77.7859 34.8663V34.8674ZM41.6742 35.4408H39.3184V25.538H41.6742C42.4077 25.538 42.961 25.7633 43.3367 26.1948C43.7124 26.6264 43.9055 27.2702 43.9055 28.088V32.8908C43.9055 33.7102 43.7169 34.3492 43.3367 34.7845C42.9566 35.2199 42.4077 35.4413 41.6742 35.4413V35.4408ZM42.0216 27.4395C41.9417 27.3423 41.8132 27.3012 41.6479 27.3012H41.0633V33.678H41.6494C41.8147 33.678 41.9427 33.637 42.0236 33.5392C42.1125 33.4312 42.1611 33.2454 42.1611 32.9591V28.0207C42.1611 27.7355 42.1115 27.548 42.0231 27.4395H42.0216ZM51.2276 27.3021H51.2281H51.4142V25.5391H47.3031V35.4435H51.4142V33.68H49.0475V31.3034H50.9264V29.5399H49.0445V27.3021H51.2276ZM54.6126 25.5391H56.1575L57.0434 32.0936L57.9292 25.5391H59.5669C59.1008 28.8401 58.6329 32.141 58.1635 35.4419H55.7992L54.3947 25.5391H54.6126ZM66.6212 27.3021H66.6227H66.8078V25.5391H62.6941V35.4435H66.8078V33.68H64.4391V31.3034H66.3215V29.5399H64.4391V27.3021H66.6212ZM73.9959 35.4425H70.182V25.5391H71.9269V33.6789H74.183V35.4425H73.9964H73.9959ZM78.9383 27.9259C78.9383 27.6408 78.9904 27.4506 79.0822 27.3394L79.0842 27.3388C79.1681 27.2367 79.2966 27.1924 79.4624 27.1924C79.6281 27.1924 79.7591 27.2367 79.8425 27.3388C79.9363 27.4506 79.9859 27.6402 79.9859 27.9254V33.054C79.9859 33.3402 79.9343 33.5298 79.8425 33.6416C79.7601 33.7432 79.6271 33.7875 79.4624 33.7875C79.2976 33.7875 79.1661 33.7432 79.0817 33.6411C78.9879 33.5293 78.9383 33.3397 78.9383 33.054V27.9259ZM87.3493 25.5397H85.3294L85.3274 25.5391H85.1408V35.4425H86.8852V31.8743H87.3473C88.0803 31.8743 88.6292 31.6529 89.0093 31.2175C89.3895 30.7822 89.578 30.1432 89.578 29.3238V28.0891C89.578 27.2713 89.387 26.628 89.0113 26.1965C88.6356 25.7649 88.0823 25.5397 87.3493 25.5397ZM87.7115 27.4292C87.638 27.3395 87.5154 27.3039 87.3512 27.3039H86.8891V30.1126H87.3512C87.5154 30.1126 87.638 30.0775 87.7115 29.9878C87.7938 29.8873 87.837 29.7064 87.837 29.4212V27.9936C87.8355 27.7079 87.7914 27.527 87.71 27.4265L87.7115 27.4292ZM104.188 27.3048H106.372L106.37 27.3021H106.556V25.5391H102.443V35.4435H106.556V33.68H104.188V31.3034H106.07V29.5399H104.188V27.3048ZM114.456 35.4452H112.903L111.526 29.8948V35.4419H109.918V25.5391H111.968L113.047 29.8926V25.5391H114.642V35.4419L114.456 35.4452ZM117.753 27.3048H119.187L119.187 27.3021V35.4419H120.932V27.3021H122.365V25.5391H117.753V27.3048Z" fill="white"/>
</svg>
