<svg width="336" height="156" viewBox="0 0 336 156" fill="none" xmlns="http://www.w3.org/2000/svg">
<path fill-rule="evenodd" clip-rule="evenodd" d="M180.888 0.363729C174.768 2.5896 171.086 11.9703 169.827 28.542C169.423 33.8652 169.139 45.7061 169.27 51.8215C169.698 71.8561 171.426 82.2525 175.337 88.3174C176.859 90.6778 178.454 92.0048 180.498 92.6091C184.176 93.6973 187.803 91.8269 189.711 87.8589C190.377 86.4738 191.668 82.4268 191.707 81.6006C191.765 80.3841 192.019 83.0938 192.035 85.0991C192.046 86.4123 192.106 88.3935 192.17 89.5013L192.286 91.5159H194.075H195.864V68.3857V45.2555H188.603H181.342V47.4939V49.7323H185.899H190.457L190.372 59.9543C190.305 67.9371 190.217 70.7975 189.969 73.0117C189.033 81.3666 187.515 86.3867 185.321 88.3821C184.458 89.1674 184.159 89.2775 182.885 89.2775C180.301 89.2775 178.936 87.6787 177.626 83.1174C176.46 79.0596 175.613 72.0492 175.179 62.8792C174.937 57.7682 174.935 37.4279 175.176 30.7804C175.622 18.471 177.111 9.77281 179.364 6.30745C180.71 4.23707 181.657 3.62763 183.533 3.62405C184.907 3.62136 185.214 3.72582 186.157 4.51941C188.721 6.67485 189.572 10.966 189.812 22.946L189.931 28.8405H192.743H195.556L195.433 24.8221C195.278 19.7239 195.047 16.7011 194.585 13.7336C193.562 7.15237 191.046 2.44545 187.568 0.602789C186.28 -0.0791793 182.48 -0.215273 180.888 0.363729ZM13.7588 2.35263C13.6034 3.54287 11.1644 23.2853 8.33865 46.2254L3.2008 87.9344H1.60031H0V89.7252V91.5159H4.81037H9.62075V89.7252V87.9344H7.80551C6.80713 87.9344 5.99028 87.8479 5.99028 87.7419C5.99028 87.6363 6.6846 81.7899 7.53323 74.7505C8.38185 67.7109 9.07618 61.888 9.07618 61.8107C9.07618 61.7337 11.4256 61.6704 14.2973 61.6704H19.5185L21.129 74.4294C22.0148 81.4469 22.7781 87.3563 22.8251 87.5614C22.8901 87.8446 22.4686 87.9344 21.0761 87.9344H19.2415V89.7252V91.5159H25.5948H31.9481V89.7252V87.9344H30.3266C28.9405 87.9344 28.6911 87.8586 28.6079 87.4121C28.5197 86.9382 17.7893 0.526092 17.7893 0.289716C17.7893 0.234204 16.9459 0.188835 15.9153 0.188835H14.0412L13.7588 2.35263ZM145.152 0.71113C145.072 1.17045 143.584 13.2316 136.158 73.6086L134.415 87.7852L132.828 87.8715L131.241 87.9577V89.7368V91.5159H136.052H140.862V89.7252V87.9344H139.047C137.825 87.9344 137.232 87.8249 137.232 87.5993C137.232 87.2026 140.111 62.9568 140.249 62.1883C140.337 61.6982 140.707 61.6669 145.537 61.7406L150.729 61.8197L152.324 74.3548C153.201 81.2491 153.922 87.125 153.926 87.4121C153.931 87.8759 153.726 87.9344 152.093 87.9344H150.254L150.366 89.0536C150.428 89.6694 150.48 90.4752 150.481 90.8444L150.483 91.5159H156.836H163.19V89.7252V87.9344L161.511 87.9332L159.831 87.9318L154.396 44.0604L148.961 0.188835H147.102C145.487 0.188835 145.231 0.257479 145.152 0.71113ZM211.031 42.7932C208.142 66.2258 205.706 85.9685 205.617 86.666L205.455 87.9344H203.927H202.399V89.7252V91.5159H207.097H211.796L211.905 90.8444C211.965 90.4752 212.016 89.6694 212.017 89.0536L212.019 87.9344H210.101C208.362 87.9344 208.191 87.8858 208.271 87.4121C208.32 87.125 209.037 81.2153 209.866 74.2801L211.372 61.6704H216.597C219.47 61.6704 221.822 61.7367 221.822 61.8173C221.822 61.8982 222.557 67.7637 223.455 74.852C224.354 81.94 225.089 87.7834 225.089 87.8368C225.089 87.8906 224.272 87.9344 223.274 87.9344H221.459V89.7252V91.5159H227.812H234.165V89.7252V87.9344H232.547H230.928L230.743 86.5168C230.529 84.8747 225.528 44.5484 222.35 18.8422C221.153 9.15739 220.131 0.998243 220.078 0.71113C219.995 0.258076 219.736 0.188835 218.133 0.188835H216.284L211.031 42.7932ZM321.224 0.664569C318.217 1.86107 315.616 5.41716 314.151 10.3363C312.047 17.3989 311.615 27.4401 313.132 34.0312C313.741 36.6803 315.243 40.088 316.675 42.0742C317.37 43.0379 319.613 45.639 321.66 47.8544C326.347 52.929 328.428 55.499 329.001 56.9235C330.136 59.7436 330.648 64.7532 330.461 71.221C330.209 79.9645 329.511 84.2581 327.915 86.8809C325.473 90.8966 320.839 89.9174 318.777 84.9499C317.472 81.8051 317.122 78.36 317.122 68.6626V61.6704H314.399H311.676L311.676 65.9234C311.678 81.2129 314.483 89.6711 320.422 92.294C322.012 92.9962 325.522 92.9959 327.091 92.2934C330.827 90.6208 333.587 85.8647 334.902 78.8316C335.525 75.5023 336 70.2689 336 66.7409C336 61.1613 335.36 57.3023 333.799 53.4641C332.288 49.7496 331.271 48.4125 324.06 40.6506C320.323 36.6292 318.739 33.9109 318.102 30.4318C317.425 26.7352 317.436 16.6364 318.122 12.2762C319.002 6.67843 321.04 3.65777 323.92 3.68105C326.869 3.70492 328.249 6.11077 329.108 12.7239C329.225 13.6267 329.365 17.0178 329.418 20.2599L329.515 26.1544H332.122H334.729V23.6059C334.729 10.772 332.093 2.74629 327.188 0.64577C325.851 0.0727377 322.687 0.0828817 321.224 0.664569ZM36.8493 3.47183V5.26256H38.8468H40.8441L40.7981 46.5239L40.752 87.7852L38.8006 87.87L36.8493 87.9547V89.7353V91.5159H48.8298H60.8104V77.0409V62.5658H59.6305H58.4506L58.4469 65.9234C58.4409 71.6147 57.7 78.8211 56.7622 82.3074C56.2685 84.1426 55.1949 85.8318 54.1439 86.4269C53.7228 86.6654 52.1468 86.8705 50.0551 86.9591L46.6515 87.1035V46.1831V5.26256H48.8298H51.0081V3.47183V1.68111H43.9287H36.8493V3.47183ZM66.6191 3.47183V5.26256H68.6159H70.6126V46.5985V87.9344H68.6159H66.6191V89.7252V91.5159H73.6985H80.778V89.7252V87.9344H78.5997H76.4214V68.2078V48.4812L78.9173 48.5871C81.1535 48.682 81.5193 48.7745 82.4311 49.475C84.0285 50.7025 85.0111 53.3812 85.2329 57.1136C85.4653 61.0264 85.3718 60.7751 86.5949 60.7751H87.6759V46.3V31.825H86.4959H85.316V34.4568C85.316 38.862 84.5988 41.6421 83.1492 42.8583C82.2165 43.6405 80.5302 44.0566 78.282 44.0592L76.4214 44.0616V25.079V6.09674L80.0972 6.21702C82.9945 6.31222 83.9172 6.44175 84.454 6.82945C86.4734 8.28859 87.7982 13.602 87.9886 21.006L88.0905 24.9606H89.2446H90.3987V13.3208V1.68111H78.5089H66.6191V3.47183ZM96.2075 3.45363V5.26256H98.2042H100.201V46.5985V87.9344H98.2042H96.2075V89.7252V91.5159H102.742H109.277V89.7252V87.9344H107.643H106.01V68.3427V48.7513L108.778 48.9133C113.505 49.19 114.82 50.0346 115.946 53.5152C116.738 55.9613 117.029 58.9676 117.257 67.0489C117.752 84.5255 117.871 86.2431 118.839 89.7866L119.31 91.5159H122.735H126.159V89.7252C126.159 87.9434 126.156 87.9344 125.626 87.9344C124.884 87.9344 124.218 87.4694 123.999 86.7982C123.632 85.6713 123.437 82.2155 123.165 72.0543C122.819 59.1512 122.468 55.5948 121.185 51.9958C120.374 49.72 118.767 47.7831 116.837 46.7552L116.138 46.3827L117.17 45.693C119.994 43.8062 121.706 40.2328 122.742 34.0634C123.099 31.9417 123.144 30.9443 123.15 25.1098C123.155 19.2523 123.112 18.254 122.744 15.8577C121.853 10.0447 120.067 6.05466 117.417 3.95921C114.827 1.91092 114.694 1.88734 104.966 1.7596L96.2075 1.64469V3.45363ZM239.066 3.46735V5.26256H241.063H243.06V46.5985V87.9344H241.063H239.066V89.7252V91.5159H244.149H249.232V89.7252V87.9344H247.507H245.783L245.797 50.2546C245.805 29.5308 245.843 12.709 245.882 12.8731C245.941 13.1244 258.06 86.4911 258.663 90.2475L258.866 91.5159H261.945H265.024V48.3892V5.26256H266.749H268.473V3.47183V1.68111H263.663H258.853V3.47183V5.26256H260.577H262.301V42.0223C262.301 62.2399 262.269 78.7259 262.23 78.6576C262.191 78.5889 260.508 68.5274 258.49 56.2983C256.472 44.0691 253.62 26.811 252.151 17.9469L249.481 1.83033L244.274 1.75124L239.066 1.67185V3.46735ZM275.371 3.47183V5.26256H277.096H278.82L278.822 35.6303C278.823 52.3324 278.903 68.1562 279.001 70.7936C279.316 79.3082 280.282 83.8179 282.617 87.6667C285.002 91.598 287.681 93.1944 291.436 92.921C296.174 92.5763 298.839 89.0256 299.792 81.7899C300.284 78.0514 300.409 69.0635 300.415 36.9733L300.421 5.26256H302.146H303.87V3.47183V1.68111H299.06H294.25V3.47183V5.26256H295.983H297.716L297.643 41.8978C297.59 68.6823 297.512 79.0145 297.354 80.3239C296.77 85.1445 295.281 87.9562 292.748 89.0232C290.477 89.9798 288.401 89.053 286.898 86.4114C285.99 84.8147 285.686 83.8346 285.103 80.6223C284.729 78.5603 284.723 78.0574 284.672 41.8978L284.619 5.26256H286.348H288.078V3.47183V1.68111H281.724H275.371V3.47183ZM112.774 7.01628C114.735 8.29038 116.234 11.5483 116.979 16.1561C117.496 19.3541 117.724 25.4357 117.486 29.6848C117.134 35.975 116.41 39.2431 114.858 41.537C113.408 43.6805 112.41 44.1473 108.959 44.295L106.01 44.4216V25.2635V6.1054L108.869 6.2212C111.31 6.31999 111.881 6.43609 112.774 7.01628ZM16.9786 36.965C18.2021 47.8445 19.1662 56.8465 19.121 56.9698C19.0756 57.0931 17.006 57.1936 14.5219 57.1936C12.0377 57.1936 9.96836 57.0931 9.92353 56.9698C9.87851 56.8465 10.3933 52.1124 11.0675 46.4493C11.7415 40.7861 12.8056 31.8169 13.4318 26.5179C14.0583 21.2185 14.6119 16.9506 14.6622 17.0336C14.7127 17.1163 15.755 26.0857 16.9786 36.965ZM148.202 37.2381C149.419 48.0561 150.376 56.9716 150.328 57.0504C150.193 57.2718 141.044 57.2196 141.044 56.9975C141.044 56.74 145.569 18.4689 145.713 17.5016C145.779 17.0652 145.859 16.9256 145.907 17.1634C145.952 17.3864 146.985 26.42 148.202 37.2381ZM219.258 37.048C220.47 47.8819 221.461 56.8465 221.46 56.9698C221.459 57.0931 219.376 57.1936 216.83 57.1936C213.253 57.1936 212.199 57.1089 212.192 56.8206C212.169 55.9497 216.837 16.9459 216.94 17.1384C217.003 17.2548 218.045 26.2141 219.258 37.048ZM122.256 124.071C119.777 125.507 118.515 128.197 118.513 132.047C118.512 135.298 119.521 137.674 121.52 139.123C122.025 139.489 123.622 140.282 125.07 140.886C128.446 142.293 129.849 143.375 130.337 144.948C130.783 146.386 130.787 147.421 130.351 148.998C129.62 151.645 127.194 153.078 124.597 152.396C122.112 151.743 120.527 149.568 120.086 146.208C119.948 145.159 119.624 145.014 118.356 145.431C117.777 145.621 117.769 145.647 117.85 147.028C118.015 149.85 119.411 153.093 121.053 154.47C122.676 155.831 126.143 156.421 128.118 155.672C130.089 154.924 131.677 152.988 132.451 150.389C133.519 146.8 132.94 142.578 131.071 140.33C129.934 138.962 129.289 138.564 125.912 137.145C122.729 135.809 121.852 135.219 121.287 134.04C120.168 131.7 121.003 128.434 123.012 127.298C124.066 126.702 126.62 126.774 127.654 127.429C128.724 128.107 129.68 129.881 129.959 131.707C130.142 132.9 130.216 133.043 130.568 132.888C130.789 132.79 131.306 132.709 131.717 132.707L132.465 132.703L132.306 131.3C131.937 128.056 130.652 125.542 128.727 124.303C127.193 123.315 123.773 123.192 122.256 124.071ZM231.614 123.998C228.504 125.681 226.562 129.107 225.726 134.383C225.323 136.927 225.365 142.192 225.811 145.06C226.461 149.238 227.831 152.538 229.64 154.281C230.809 155.407 232.375 155.982 234.275 155.982C236.995 155.982 238.887 154.691 240.513 151.725C241.068 150.713 242.019 147.735 242.215 146.393C242.325 145.642 242.281 145.588 241.207 145.143C240.06 144.668 239.793 144.703 239.792 145.33C239.792 146.126 238.707 149.33 238.136 150.222C237.08 151.868 235.926 152.544 234.162 152.547C232.775 152.55 232.488 152.447 231.393 151.561C229.371 149.925 228.375 147.152 227.993 142.099C227.674 137.873 228.192 133.449 229.341 130.596C230.609 127.444 233.725 125.93 236.327 127.201C237.503 127.775 238.607 129.5 239.239 131.751C239.725 133.484 239.572 133.415 241.299 132.67C242.083 132.333 242.083 132.176 241.301 129.617C240.675 127.57 239.428 125.648 238.014 124.551C236.899 123.686 236.624 123.601 234.71 123.53C233.08 123.469 232.401 123.572 231.614 123.998ZM71.0194 139.61L71.0665 155.534L72.2917 155.623L73.517 155.711V148.505V141.299L75.9358 141.403C78.2288 141.502 78.3946 141.551 79.1216 142.342C80.0009 143.299 81.0497 145.571 83.3091 151.415L84.902 155.534L86.3798 155.621C87.1925 155.669 87.8574 155.619 87.8574 155.509C87.8574 155.4 87.0235 153.145 86.0044 150.498C84.159 145.705 82.5952 142.579 81.6342 141.762C80.9934 141.217 81.1172 140.891 82.0595 140.643C83.6529 140.225 85.3193 138.258 85.9795 136.018C86.1541 135.425 86.33 134.046 86.3707 132.952C86.4724 130.211 86.0538 128.252 84.9759 126.425C83.6239 124.132 83.1478 123.985 76.5559 123.823L70.9724 123.686L71.0194 139.61ZM95.6629 139.716V155.684H102.833H110.003V153.893V152.102H104.013H98.0227V146.581V141.059H103.378H108.733V139.269V137.478H103.378H98.0227V132.404V127.33H103.741H109.459V125.54V123.749H102.561H95.6629V139.716ZM141.951 139.716V155.684H143.222H144.493V139.716V123.749H143.222H141.951V139.716ZM154.113 139.716V155.684L157.517 155.681C163.413 155.677 165.313 155.023 167.061 152.395C168.926 149.594 169.906 145.174 169.906 139.567C169.906 134.172 169.054 130.08 167.347 127.273C165.596 124.394 163.848 123.749 157.794 123.749H154.113V139.716ZM178.619 139.716V155.684H185.789H192.959V153.897V152.11L187.015 152.032L181.07 151.953L181.02 146.506L180.971 141.059H186.33H191.689V139.273V137.487L186.379 137.408L181.07 137.329L181.02 132.33L180.97 127.33H186.693H192.415V125.54V123.749H185.517H178.619V139.716ZM201.491 139.703V155.684H202.671H203.851V143.085C203.851 132.417 203.889 130.553 204.099 130.923C204.236 131.163 206.57 136.832 209.288 143.522L214.229 155.684H215.484H216.739V139.716V123.749H215.561H214.383L214.336 136.325L214.288 148.901L209.182 136.4L204.076 123.898L202.784 123.81L201.491 123.723V139.703ZM250.684 139.716V155.684H257.854H265.024V153.893V152.102H259.034H253.044V146.581V141.059H258.399H263.754V139.273V137.487L258.444 137.408L253.135 137.329L253.085 132.33L253.035 127.33H258.757H264.48V125.54V123.749H257.582H250.684V139.716ZM82.1299 127.927C83.2672 128.872 83.7101 129.878 83.8207 131.769C83.9354 133.733 83.7929 134.564 83.1267 135.812C82.1583 137.625 81.3757 137.905 77.2448 137.916L73.6078 137.926L73.5582 132.449L73.5087 126.972L77.3702 127.077C81.0644 127.177 81.2706 127.213 82.1299 127.927ZM164.006 128.034C165.533 129.126 166.737 131.811 167.184 135.12C167.53 137.674 167.342 143.73 166.849 145.974C166.223 148.817 165.076 150.766 163.574 151.538C163.213 151.724 161.468 151.942 159.695 152.022L156.473 152.169V139.717V127.266L159.877 127.39C162.589 127.489 163.428 127.62 164.006 128.034Z" fill="white"/>
</svg>
