<svg width="284" height="133" viewBox="0 0 284 133" fill="none" xmlns="http://www.w3.org/2000/svg">
<path fill-rule="evenodd" clip-rule="evenodd" d="M152.72 0.858986C147.553 2.74358 144.444 10.686 143.382 24.7169C143.04 29.224 142.801 39.2494 142.911 44.4271C143.273 61.39 144.732 70.1924 148.033 75.3274C149.318 77.326 150.665 78.4495 152.391 78.9612C155.496 79.8825 158.559 78.2988 160.169 74.9393C160.732 73.7665 161.821 70.34 161.854 69.6405C161.903 68.6105 162.118 70.9047 162.131 72.6026C162.14 73.7145 162.192 75.3918 162.245 76.3298L162.343 78.0355H163.854H165.364V58.4517V38.8678H159.234H153.103V40.763V42.6583H156.951H160.799L160.727 51.313C160.671 58.0719 160.596 60.4937 160.387 62.3685C159.597 69.4424 158.315 73.6927 156.463 75.3822C155.734 76.0471 155.482 76.1403 154.406 76.1403C152.225 76.1403 151.072 74.7866 149.966 70.9247C148.982 67.4891 148.266 61.5535 147.9 53.7895C147.696 49.4621 147.694 32.2404 147.898 26.6121C148.274 16.19 149.531 8.82545 151.433 5.89141C152.57 4.13846 153.369 3.62246 154.953 3.61943C156.114 3.61715 156.372 3.7056 157.169 4.37751C159.333 6.20247 160.052 9.83572 160.255 19.9789L160.355 24.9696H162.729H165.104L165.001 21.5673C164.869 17.2508 164.674 14.6915 164.284 12.179C163.421 6.60678 161.297 2.62153 158.36 1.06139C157.272 0.483986 154.064 0.368758 152.72 0.858986ZM11.6162 2.54295C11.4851 3.55069 9.4259 20.2662 7.04015 39.6891L2.70237 75.0032H1.35111H0V76.5194V78.0355H4.0613H8.1226V76.5194V75.0032H6.59004C5.74713 75.0032 5.05747 74.9299 5.05747 74.8402C5.05747 74.7507 5.64368 69.8007 6.36015 63.8406C7.07663 57.8803 7.66283 52.9503 7.66283 52.8848C7.66283 52.8196 9.64644 52.766 12.071 52.766H16.4791L17.8388 63.5687C18.5867 69.5104 19.2311 74.5137 19.2708 74.6873C19.3257 74.9271 18.9698 75.0032 17.7942 75.0032H16.2452V76.5194V78.0355H21.6092H26.9732V76.5194V75.0032H25.6041C24.4339 75.0032 24.2233 74.939 24.1531 74.561C24.0786 74.1597 15.0192 0.996456 15.0192 0.796322C15.0192 0.74932 14.3071 0.710908 13.4369 0.710908H11.8547L11.6162 2.54295ZM122.549 1.15312C122.482 1.54202 121.225 11.7539 114.956 62.8738L113.484 74.8768L112.144 74.9499L110.805 75.0229V76.5292V78.0355H114.866H118.927V76.5194V75.0032H117.395C116.363 75.0032 115.862 74.9105 115.862 74.7194C115.862 74.3836 118.293 53.8552 118.409 53.2045C118.484 52.7895 118.796 52.763 122.874 52.8254L127.258 52.8924L128.604 63.5056C129.345 69.3428 129.953 74.3179 129.956 74.561C129.961 74.9537 129.788 75.0032 128.409 75.0032H126.856L126.951 75.9508C127.004 76.4721 127.047 77.1544 127.048 77.467L127.05 78.0355H132.414H137.778V76.5194V75.0032L136.36 75.0022L134.943 75.0009L130.354 37.856L125.765 0.710908H124.196C122.832 0.710908 122.616 0.769027 122.549 1.15312ZM178.17 36.7831C175.731 56.6229 173.674 73.3387 173.598 73.9292L173.462 75.0032H172.171H170.881V76.5194V78.0355H174.848H178.815L178.907 77.467C178.958 77.1544 179.001 76.4721 179.002 75.9508L179.004 75.0032H177.384C175.916 75.0032 175.772 74.962 175.839 74.561C175.88 74.3179 176.486 69.3143 177.185 63.4424L178.457 52.766H182.868C185.295 52.766 187.28 52.8221 187.28 52.8904C187.28 52.9589 187.9 57.9251 188.659 63.9266C189.418 69.9278 190.038 74.8753 190.038 74.9206C190.038 74.966 189.349 75.0032 188.506 75.0032H186.973V76.5194V78.0355H192.337H197.701V76.5194V75.0032H196.335H194.968L194.812 73.8029C194.631 72.4126 190.409 38.2692 187.726 16.5043C186.715 8.30439 185.852 1.39622 185.807 1.15312C185.737 0.769533 185.519 0.710908 184.165 0.710908H182.604L178.17 36.7831ZM271.203 1.1137C268.664 2.12676 266.468 5.13762 265.231 9.30253C263.455 15.2823 263.09 23.784 264.371 29.3645C264.886 31.6074 266.153 34.4927 267.362 36.1744C267.949 36.9903 269.843 39.1925 271.571 41.0683C275.529 45.3649 277.285 47.5408 277.769 48.7469C278.727 51.1346 279.159 55.3761 279.002 60.8523C278.789 68.2552 278.199 71.8905 276.853 74.1112C274.791 77.5112 270.878 76.6821 269.137 72.4762C268.035 69.8136 267.739 66.8967 267.739 58.6862V52.766H265.441H263.142L263.142 56.3669C263.144 69.3122 265.512 76.4736 270.526 78.6943C271.868 79.2889 274.832 79.2886 276.156 78.6938C279.311 77.2777 281.641 73.2508 282.751 67.296C283.277 64.4772 283.678 60.0462 283.678 57.0591C283.678 52.3349 283.138 49.0676 281.82 45.8179C280.544 42.6729 279.686 41.5408 273.597 34.969C270.443 31.5642 269.105 29.2626 268.567 26.317C267.996 23.1871 268.005 14.6367 268.584 10.945C269.327 6.2055 271.047 3.64798 273.48 3.66769C275.969 3.6879 277.134 5.72488 277.859 11.3241C277.958 12.0885 278.076 14.9596 278.121 17.7046L278.203 22.6954H280.404H282.605V20.5376C282.605 9.67147 280.38 2.87625 276.239 1.09778C275.109 0.612611 272.438 0.621199 271.203 1.1137ZM31.1111 3.49055V5.00672H32.7975H34.4838L34.4451 39.9418L34.4061 74.8768L32.7586 74.9486L31.1111 75.0204V76.528V78.0355H41.226H51.341V65.7798V53.5241H50.3448H49.3487L49.3456 56.3669C49.3405 61.1856 48.7149 67.2872 47.9232 70.2389C47.5064 71.7927 46.6 73.223 45.7126 73.7268C45.3571 73.9287 44.0265 74.1023 42.2605 74.1774L39.387 74.2997V39.6532V5.00672H41.226H43.0651V3.49055V1.97438H37.0881H31.1111V3.49055ZM56.2452 3.49055V5.00672H57.931H59.6169V40.005V75.0032H57.931H56.2452V76.5194V78.0355H62.2222H68.1992V76.5194V75.0032H66.3601H64.5211V58.3011V41.599L66.6283 41.6887C68.5163 41.769 68.8251 41.8474 69.5949 42.4404C70.9436 43.4798 71.7732 45.7477 71.9604 48.9079C72.1566 52.2207 72.0777 52.008 73.1103 52.008H74.023V39.7523V27.4966H73.0268H72.0306V29.7248C72.0306 33.4546 71.4251 35.8084 70.2012 36.8382C69.4138 37.5005 67.99 37.8528 66.0919 37.855L64.5211 37.857V21.7849V5.71301L67.6245 5.81484C70.0706 5.89545 70.8496 6.00512 71.3028 6.33337C73.0078 7.56879 74.1263 12.0675 74.287 18.3364L74.373 21.6846H75.3474H76.3218V11.8295V1.97438H66.2835H56.2452V3.49055ZM81.226 3.47514V5.00672H82.9119H84.5977V40.005V75.0032H82.9119H81.226V76.5194V78.0355H86.7433H92.2605V76.5194V75.0032H90.8812H89.5019V58.4153V41.8276L91.8391 41.9649C95.8297 42.1991 96.9404 42.9142 97.8912 45.8612C98.5592 47.9322 98.8052 50.4776 98.9981 57.3199C99.4156 72.1169 99.5163 73.5712 100.333 76.5714L100.731 78.0355H103.623H106.513V76.5194C106.513 75.0108 106.511 75.0032 106.064 75.0032C105.437 75.0032 104.875 74.6095 104.69 74.0412C104.38 73.087 104.215 70.161 103.986 61.5578C103.694 50.633 103.398 47.6219 102.314 44.5747C101.63 42.6479 100.273 41.0079 98.6434 40.1376L98.0529 39.8223L98.9246 39.2383C101.308 37.6407 102.754 34.6152 103.629 29.3918C103.93 27.5954 103.968 26.7509 103.973 21.8109C103.978 16.8515 103.941 16.0063 103.631 13.9774C102.878 9.05565 101.37 5.67737 99.133 3.9032C96.9464 2.16896 96.8339 2.14899 88.6207 2.04084L81.226 1.94355V3.47514ZM201.839 3.48676V5.00672H203.525H205.211V40.005V75.0032H203.525H201.839V76.5194V78.0355H206.13H210.421V76.5194V75.0032H208.965H207.51L207.522 43.1005C207.528 25.5541 207.56 11.3115 207.593 11.4504C207.643 11.6632 217.875 73.7812 218.384 76.9616L218.556 78.0355H221.155H223.755V41.5211V5.00672H225.211H226.667V3.49055V1.97438H222.605H218.544V3.49055V5.00672H220H221.456V36.1304C221.456 53.2482 221.429 67.2065 221.396 67.1487C221.363 67.0906 219.941 58.5717 218.238 48.2175C216.534 37.8634 214.126 23.2513 212.886 15.7463L210.632 2.10073L206.236 2.03376L201.839 1.96655V3.48676ZM232.49 3.49055V5.00672H233.946H235.402L235.404 30.7184C235.404 44.8597 235.472 58.2574 235.555 60.4904C235.821 67.6995 236.637 71.5178 238.608 74.7765C240.621 78.105 242.883 79.4567 246.054 79.2252C250.054 78.9334 252.304 75.927 253.108 69.8007C253.524 66.6355 253.63 59.0256 253.635 31.8555L253.64 5.00672H255.096H256.552V3.49055V1.97438H252.49H248.429V3.49055V5.00672H249.892H251.356L251.294 36.025C251.249 58.7029 251.184 67.4509 251.05 68.5595C250.557 72.641 249.3 75.0216 247.162 75.925C245.244 76.7349 243.491 75.9503 242.222 73.7137C241.455 72.3618 241.199 71.5319 240.707 68.8122C240.391 67.0663 240.386 66.6405 240.342 36.025L240.298 5.00672H241.758H243.218V3.49055V1.97438H237.854H232.49V3.49055ZM95.2126 6.49156C96.8683 7.57031 98.1339 10.3287 98.7629 14.2301C99.1995 16.9377 99.392 22.0869 99.1914 25.6845C98.8942 31.0103 98.2823 33.7773 96.9721 35.7195C95.7479 37.5344 94.9053 37.9296 91.9923 38.0547L89.5019 38.1618V21.9411V5.72033L91.9157 5.81838C93.9768 5.90202 94.4585 6.00032 95.2126 6.49156ZM14.3347 31.8485C15.3677 41.06 16.1816 48.6817 16.1434 48.7861C16.1051 48.8905 14.3579 48.9756 12.2605 48.9756C10.1632 48.9756 8.41609 48.8905 8.37824 48.7861C8.34023 48.6817 8.77487 44.6735 9.34406 39.8786C9.9131 35.0837 10.8115 27.4897 11.3402 23.0031C11.8691 18.5163 12.3366 14.9028 12.379 14.973C12.4216 15.043 13.3016 22.6372 14.3347 31.8485ZM125.124 32.0797C126.152 41.2391 126.959 48.7876 126.919 48.8543C126.805 49.0418 119.08 48.9976 119.08 48.8096C119.08 48.5915 122.901 16.1882 123.023 15.3692C123.078 14.9998 123.146 14.8815 123.186 15.0829C123.225 15.2717 124.097 22.9203 125.124 32.0797ZM185.115 31.9187C186.138 41.0915 186.975 48.6817 186.974 48.7861C186.974 48.8905 185.215 48.9756 183.065 48.9756C180.045 48.9756 179.155 48.9039 179.149 48.6598C179.13 47.9224 183.071 14.8987 183.158 15.0617C183.211 15.1602 184.091 22.7459 185.115 31.9187ZM103.219 105.599C101.125 106.815 100.059 109.093 100.058 112.353C100.057 115.105 100.91 117.117 102.597 118.343C103.023 118.653 104.372 119.325 105.594 119.836C108.445 121.028 109.629 121.944 110.041 123.275C110.417 124.493 110.421 125.369 110.053 126.704C109.435 128.946 107.387 130.159 105.195 129.581C103.097 129.029 101.758 127.187 101.386 124.342C101.27 123.454 100.996 123.331 99.9252 123.684C99.4369 123.845 99.43 123.867 99.4982 125.037C99.6374 127.426 100.816 130.171 102.203 131.338C103.573 132.49 106.5 132.989 108.167 132.355C109.832 131.722 111.173 130.082 111.825 127.882C112.727 124.843 112.238 121.268 110.661 119.366C109.701 118.207 109.156 117.87 106.305 116.669C103.618 115.537 102.877 115.038 102.401 114.04C101.455 112.058 102.161 109.294 103.857 108.332C104.747 107.827 106.903 107.888 107.776 108.443C108.679 109.016 109.486 110.518 109.722 112.064C109.876 113.074 109.939 113.195 110.236 113.064C110.422 112.982 110.859 112.913 111.206 112.911L111.838 112.907L111.703 111.72C111.392 108.973 110.307 106.845 108.682 105.795C107.387 104.959 104.499 104.855 103.219 105.599ZM195.547 105.537C192.921 106.963 191.282 109.863 190.576 114.33C190.236 116.484 190.271 120.942 190.647 123.37C191.196 126.908 192.353 129.702 193.88 131.177C194.867 132.131 196.19 132.618 197.794 132.618C200.09 132.618 201.687 131.524 203.061 129.013C203.529 128.157 204.331 125.635 204.497 124.499C204.59 123.863 204.553 123.817 203.646 123.44C202.678 123.038 202.452 123.068 202.452 123.599C202.452 124.273 201.536 126.986 201.053 127.74C200.162 129.135 199.188 129.706 197.698 129.709C196.527 129.711 196.285 129.625 195.36 128.874C193.654 127.489 192.813 125.141 192.49 120.863C192.221 117.285 192.658 113.539 193.628 111.123C194.699 108.455 197.33 107.174 199.527 108.249C200.519 108.735 201.451 110.196 201.984 112.102C202.395 113.569 202.266 113.511 203.724 112.88C204.386 112.594 204.386 112.462 203.725 110.295C203.197 108.562 202.144 106.934 200.95 106.006C200.009 105.273 199.777 105.201 198.161 105.141C196.785 105.09 196.212 105.176 195.547 105.537ZM59.9603 118.756L60 132.239L61.0345 132.313L62.069 132.388V126.287V120.186L64.1111 120.274C66.047 120.357 66.187 120.399 66.8008 121.069C67.5431 121.879 68.4286 123.803 70.3362 128.751L71.6811 132.239L72.9287 132.312C73.6149 132.352 74.1762 132.31 74.1762 132.217C74.1762 132.125 73.4722 130.215 72.6118 127.974C71.0538 123.917 69.7335 121.27 68.9221 120.578C68.3811 120.116 68.4857 119.84 69.2812 119.631C70.6265 119.276 72.0334 117.611 72.5908 115.714C72.7382 115.213 72.8867 114.045 72.9211 113.118C73.0069 110.797 72.6535 109.139 71.7434 107.592C70.602 105.651 70.2 105.527 64.6346 105.39L59.9206 105.273L59.9603 118.756ZM80.7663 118.846V132.365H86.8199H92.8736V130.849V129.333H87.8161H82.7586V124.658V119.983H87.2797H91.8008V118.467V116.951H87.2797H82.7586V112.655V108.359H87.5862H92.4138V106.843V105.327H86.59H80.7663V118.846ZM119.847 118.846V132.365H120.92H121.992V118.846V105.327H120.92H119.847V118.846ZM130.115 118.846V132.365L132.988 132.363C137.966 132.359 139.57 131.805 141.047 129.581C142.621 127.209 143.448 123.466 143.448 118.719C143.448 114.151 142.729 110.687 141.288 108.31C139.809 105.872 138.334 105.327 133.222 105.327H130.115V118.846ZM150.805 118.846V132.365H156.858H162.912V130.852V129.339L157.893 129.273L152.874 129.206L152.832 124.595L152.79 119.983H157.314H161.839V118.471V116.958L157.356 116.891L152.874 116.824L152.832 112.592L152.79 108.359H157.621H162.452V106.843V105.327H156.628H150.805V118.846ZM170.115 118.835V132.365H171.111H172.107V121.698C172.107 112.666 172.139 111.087 172.317 111.4C172.432 111.604 174.403 116.404 176.698 122.068L180.869 132.365H181.929H182.988V118.846V105.327H181.994H181L180.96 115.974L180.92 126.622L176.608 116.038L172.297 105.453L171.206 105.379L170.115 105.304V118.835ZM211.647 118.846V132.365H217.701H223.755V130.849V129.333H218.697H213.64V124.658V119.983H218.161H222.682V118.471V116.958L218.199 116.891L213.716 116.824L213.674 112.592L213.632 108.359H218.464H223.295V106.843V105.327H217.471H211.647V118.846ZM69.3407 108.864C70.3008 109.664 70.6748 110.516 70.7681 112.117C70.865 113.78 70.7447 114.483 70.1822 115.54C69.3646 117.075 68.7039 117.312 65.2162 117.322L62.1456 117.33L62.1037 112.693L62.0619 108.056L65.3221 108.144C68.4411 108.229 68.6152 108.26 69.3407 108.864ZM138.467 108.955C139.756 109.879 140.772 112.152 141.15 114.955C141.442 117.117 141.284 122.244 140.867 124.144C140.339 126.551 139.37 128.201 138.102 128.855C137.797 129.012 136.324 129.197 134.828 129.265L132.107 129.389V118.847V108.304L134.981 108.41C137.271 108.494 137.979 108.604 138.467 108.955Z" fill="#004A57"/>
</svg>
