<svg width="67" height="77" viewBox="0 0 67 77" fill="none" xmlns="http://www.w3.org/2000/svg">
<path d="M65.6249 25.125C61.6874 7.8 46.5749 0 33.2999 0C33.2999 0 33.2999 0 33.2624 0C20.0249 0 4.87492 7.7625 0.937418 25.0875C-3.45008 44.4375 8.39992 60.825 19.1249 71.1375C23.0999 74.9625 28.1999 76.875 33.2999 76.875C38.3999 76.875 43.4999 74.9625 47.4374 71.1375C58.1624 60.825 70.0124 44.475 65.6249 25.125Z" fill="#FE6B11"/>
<path fill-rule="evenodd" clip-rule="evenodd" d="M32.1913 12.5511C32.1135 13.1636 30.8921 23.3237 29.4769 35.1295L26.9038 56.5944H26.1022H25.3008V57.5159V58.4375H27.7099H30.119V57.5159V56.5944H29.2099C28.7099 56.5944 28.3008 56.5498 28.3008 56.4953C28.3008 56.4409 28.6485 53.4321 29.0735 49.8095C29.4985 46.1866 29.8462 43.19 29.8462 43.1502C29.8462 43.1106 31.0229 43.078 32.4611 43.078H35.0759L35.8824 49.6442C36.3261 53.2557 36.7083 56.2968 36.7319 56.4024C36.7644 56.5481 36.5533 56.5944 35.856 56.5944H34.9371V57.5159V58.4375H38.119H41.3008V57.5159V56.5944H40.4887C39.7945 56.5944 39.6696 56.5554 39.628 56.3256C39.5838 56.0817 34.2099 11.6111 34.2099 11.4894C34.2099 11.4608 33.7875 11.4375 33.2713 11.4375H32.3328L32.1913 12.5511ZM33.8039 30.3638C34.4166 35.9627 34.8994 40.5955 34.8768 40.6589C34.8541 40.7223 33.8176 40.7741 32.5735 40.7741C31.3294 40.7741 30.2931 40.7223 30.2706 40.6589C30.2481 40.5955 30.5059 38.1591 30.8435 35.2447C31.1811 32.3302 31.714 27.7144 32.0276 24.9873C32.3413 22.2601 32.6186 20.0637 32.6438 20.1064C32.6691 20.1489 33.1911 24.7649 33.8039 30.3638Z" fill="white"/>
</svg>
