<svg width="120" height="33" viewBox="0 0 120 33" fill="none" xmlns="http://www.w3.org/2000/svg">
<path d="M52.8862 22.8932C53.4385 22.8932 53.8862 22.4455 53.8862 21.8932V10.2713C53.8862 9.71897 53.4385 9.27126 52.8862 9.27126H51.6981C51.1458 9.27126 50.6981 9.71897 50.6981 10.2713V14.8872C50.6981 15.8275 49.518 16.248 48.9234 15.5195L44.1237 9.63894C43.9338 9.40626 43.6494 9.27126 43.349 9.27126H42.0937C41.5415 9.27126 41.0938 9.71897 41.0938 10.2713V21.8932C41.0938 22.4455 41.5415 22.8932 42.0938 22.8932H43.262C43.8143 22.8932 44.262 22.4455 44.262 21.8932V17.271C44.262 16.3314 45.4406 15.9105 46.0358 16.6376L50.8563 22.5266C51.0462 22.7586 51.3303 22.8932 51.6301 22.8932H52.8862Z" fill="#B4A399"/>
<path d="M79.3649 22.2849C79.5219 22.6538 79.884 22.8932 80.285 22.8932H81.8121C82.213 22.8932 82.5751 22.6538 82.7322 22.2849L87.6793 10.6629C87.9601 10.0033 87.476 9.27126 86.7592 9.27126H85.4537C85.0488 9.27126 84.6838 9.51542 84.5293 9.88969L81.9604 16.1129C81.6204 16.9366 80.4541 16.9377 80.1125 16.1146L77.5285 9.88796C77.3735 9.51461 77.0091 9.27126 76.6048 9.27126H75.3378C74.621 9.27126 74.137 10.0033 74.4177 10.6629L79.3649 22.2849Z" fill="#B4A399"/>
<path d="M89.9751 22.293C89.8161 22.6575 89.4562 22.8932 89.0585 22.8932H87.9447C87.2209 22.8932 86.7369 22.1482 87.0309 21.4869L92.1991 9.86493C92.3596 9.5039 92.7177 9.27126 93.1128 9.27126H94.6827C95.0778 9.27126 95.4359 9.5039 95.5964 9.86493L100.765 21.4869C101.059 22.1482 100.575 22.8932 99.8508 22.8932H98.7369C98.3392 22.8932 97.9794 22.6576 97.8204 22.2931L95.6711 17.3677L94.81 15.3832C94.4625 14.5824 93.3277 14.5801 92.9769 15.3794L92.1044 17.3677L90.9686 20.0153L89.9751 22.293Z" fill="#B4A399"/>
<path d="M108.729 23.1234C111.678 23.1234 113.79 21.3967 113.79 18.9217C113.81 16.8688 112.475 15.5642 110.423 14.8543L109.427 14.509C107.912 13.991 107.235 13.684 107.235 12.9357C107.235 12.2259 108.091 11.8997 108.948 11.8997C109.508 11.8997 110.067 12.0415 110.568 12.3344C111.074 12.6301 111.752 12.6722 112.163 12.2539L112.789 11.6163C113.169 11.2295 113.177 10.6017 112.748 10.2694C111.601 9.37911 110.336 9.04102 108.908 9.04102C106.099 9.04102 104.027 10.5951 104.027 13.2427C104.027 15.1037 105.282 16.4276 107.593 17.1758L108.59 17.502C110.024 17.9624 110.562 18.4421 110.562 19.1328C110.562 19.8043 109.905 20.2647 108.849 20.2647C108.121 20.2647 107.315 19.981 106.658 19.4734C106.201 19.1205 105.541 19.0187 105.093 19.3827L104.224 20.0892C103.811 20.4243 103.727 21.0316 104.109 21.4014C105.24 22.4976 106.853 23.1234 108.729 23.1234Z" fill="#B4A399"/>
<path d="M60.7208 16.1845C60.7208 18.3909 62.5341 20.2711 64.8455 20.2711C65.0677 20.2711 65.2855 20.2535 65.4975 20.2195C65.8588 20.1616 66.2387 20.2412 66.5024 20.495L67.4217 21.3802C67.9095 21.8498 67.7952 22.6584 67.1507 22.8658C66.4253 23.0992 65.6502 23.2258 64.8455 23.2258C60.8005 23.2258 57.5327 20.0601 57.5327 16.1845C57.5327 12.309 60.8005 9.14334 64.8455 9.14334C68.8706 9.14334 72.1583 12.309 72.1583 16.1845C72.1583 17.2558 71.9071 18.2729 71.4586 19.1838C71.1894 19.7304 70.4716 19.7946 70.0326 19.372L69.0687 18.4439C68.7571 18.1439 68.6863 17.6803 68.8025 17.2637C68.8989 16.9181 68.9503 16.556 68.9503 16.1845C68.9503 13.9782 67.137 12.098 64.8455 12.098C62.5341 12.098 60.7208 13.9782 60.7208 16.1845Z" fill="#B4A399"/>
<circle cx="118.226" cy="21.4528" r="1.77309" fill="#B4A399"/>
<path fill-rule="evenodd" clip-rule="evenodd" d="M6 0C2.68629 0 0 2.68629 0 6V26.8761C0 30.1898 2.68629 32.8761 6 32.8761H26.8761C30.1898 32.8761 32.8761 30.1898 32.8761 26.8761V6C32.8761 2.68629 30.1898 0 26.8761 0H6ZM13.1491 10.6861C13.6818 10.6738 14.2183 10.8767 14.6248 11.2948L15.9728 12.681C17.9361 14.7001 21.1788 14.7001 23.1421 12.681L24.4901 11.2948C25.28 10.4825 26.5606 10.4825 27.3505 11.2948C28.1404 12.1071 28.1404 13.4242 27.3505 14.2365L21.1993 20.5625C21.0446 20.7216 20.8752 20.868 20.695 20.9974C19.9062 21.5637 18.8126 21.4849 18.1087 20.761L16.7338 19.3471C14.7705 17.328 11.5277 17.328 9.56439 19.3471L8.38256 20.5625C7.59267 21.3748 6.312 21.3748 5.52211 20.5625C4.73221 19.7502 4.73221 18.4331 5.52211 17.6208L11.6733 11.2948C12.0799 10.8767 12.6164 10.6738 13.1491 10.6861Z" fill="#B4A399"/>
</svg>
