<svg width="20" height="21" viewBox="0 0 20 21" fill="none" xmlns="http://www.w3.org/2000/svg">
<path d="M19.3906 17.7944L17.4856 19.7225C17.4856 19.7225 12.5359 21.8696 5.46486 14.7126C-1.60621 7.55545 0.515107 2.54548 0.515107 2.54548L2.42004 0.617374C3.28066 -0.253716 4.704 -0.151335 5.43426 0.83419L7.25253 3.28805C7.84971 4.09398 7.77053 5.22173 7.06674 5.93407L5.46486 7.55545C5.46486 7.55545 5.46486 8.98684 8.29325 11.8497C11.1217 14.7126 12.5359 14.7126 12.5359 14.7126L14.1378 13.0912C14.8415 12.3788 15.9557 12.2986 16.752 12.9031L19.1763 14.7435C20.15 15.4826 20.2512 16.9233 19.3906 17.7944Z" fill="#391501"/>
</svg>
