<svg width="18" height="22" viewBox="0 0 18 22" fill="none" xmlns="http://www.w3.org/2000/svg">
<path fill-rule="evenodd" clip-rule="evenodd" d="M15.818 13.1244C15.2016 12.4098 14.1428 12.4466 13.3149 12.8997C12.0338 13.6009 10.5635 13.9996 9 13.9996C7.4365 13.9996 5.96618 13.6009 4.68505 12.8997C3.85717 12.4466 2.79841 12.4098 2.182 13.1244C0.82222 14.701 0 16.7543 0 18.9996V19.9996C0 21.1042 0.89543 21.9996 2 21.9996H16C17.1046 21.9996 18 21.1042 18 19.9996V18.9996C18 16.7543 17.1778 14.701 15.818 13.1244Z" fill="#391501"/>
<path d="M14 5C14 7.76142 11.7614 10 9 10C6.23858 10 4 7.76142 4 5C4 2.23858 6.23858 0 9 0C11.7614 0 14 2.23858 14 5Z" fill="#391501"/>
</svg>
